<svg width="234" height="71" viewBox="0 0 234 71" fill="none" xmlns="http://www.w3.org/2000/svg">
<path d="M81.4185 17.4244C81.3995 16.6277 81.5892 16.0492 81.9876 15.6888C82.3859 15.3094 82.8696 15.1197 83.4387 15.1197C83.856 15.1197 84.2164 15.1482 84.5199 15.2051C84.8234 15.262 85.1553 15.3948 85.5157 15.6034C85.7433 15.5275 86.0089 15.4706 86.3124 15.4327C86.6159 15.3948 86.9478 15.3663 87.3083 15.3473C87.6687 15.3284 88.0385 15.3189 88.4179 15.3189C89.8975 15.3189 91.3106 15.5465 92.6574 16.0018C94.0231 16.438 95.2371 17.1019 96.2994 17.9935C97.3616 18.866 98.1962 19.9472 98.8032 21.2371C99.4292 22.508 99.7422 23.9875 99.7422 25.6757C99.7422 27.7623 99.4197 29.4979 98.7748 30.8826C98.1488 32.2673 97.2763 33.3865 96.1571 34.2401C95.0569 35.0747 93.7955 35.7007 92.3729 36.118C90.9502 36.5353 89.4422 36.8198 87.8489 36.9715C86.2555 37.1043 84.6716 37.1707 83.0972 37.1707H82.8411C82.1772 37.1707 81.6366 37.0379 81.2193 36.7724C80.821 36.4878 80.6503 36.0231 80.7072 35.3782C80.84 34.0883 80.9538 32.6467 81.0486 31.0533C81.1435 29.441 81.2193 27.8192 81.2762 26.1879C81.3521 24.5376 81.3995 22.9537 81.4185 21.4363C81.4564 19.8998 81.4564 18.5625 81.4185 17.4244ZM85.5157 33.1304C87.6971 33.0735 89.4707 32.8079 90.8364 32.3337C92.2022 31.8595 93.2075 31.0913 93.8524 30.029C94.4974 28.9668 94.8198 27.5536 94.8198 25.7896C94.8198 24.8222 94.6681 23.9401 94.3646 23.1434C94.0611 22.3278 93.6248 21.6165 93.0557 21.0095C92.5056 20.4025 91.8417 19.9377 91.064 19.6153C90.3053 19.2928 89.4612 19.1316 88.5317 19.1316C88.2662 19.1316 88.0006 19.1411 87.735 19.16C87.4695 19.16 87.1944 19.179 86.9099 19.2169C86.6443 19.2549 86.3598 19.3023 86.0563 19.3592C86.0753 20.1559 86.0753 21.0095 86.0563 21.92C86.0374 22.8115 86.0089 23.7409 85.971 24.7083C85.933 25.6568 85.8856 26.6147 85.8287 27.5821C85.7908 28.5495 85.7433 29.5074 85.6864 30.4558C85.6295 31.3853 85.5726 32.2768 85.5157 33.1304ZM103.653 22.6028C103.71 22.1286 103.957 21.7872 104.393 21.5785C104.829 21.3699 105.323 21.2655 105.873 21.2655C106.404 21.2655 106.878 21.3699 107.295 21.5785C107.732 21.7872 107.95 22.1286 107.95 22.6028C107.95 22.7735 107.94 22.9537 107.921 23.1434C107.902 23.3331 107.883 23.5323 107.864 23.7409C107.845 23.9306 107.826 24.1393 107.807 24.3669C108.225 23.7409 108.661 23.2098 109.116 22.7735C109.591 22.3373 110.112 22.0053 110.681 21.7777C111.269 21.5501 111.914 21.4363 112.616 21.4363C113.318 21.4363 113.925 21.5501 114.437 21.7777C114.949 21.9863 115.385 22.2993 115.746 22.7166C116.106 23.1339 116.391 23.6461 116.599 24.2531C117.017 23.684 117.462 23.1719 117.937 22.7166C118.411 22.2614 118.933 21.901 119.502 21.6354C120.071 21.3699 120.697 21.2371 121.379 21.2371C122.423 21.2371 123.276 21.4363 123.94 21.8346C124.623 22.214 125.164 22.7356 125.562 23.3995C125.979 24.0634 126.264 24.8222 126.416 25.6757C126.586 26.5104 126.672 27.3829 126.672 28.2934C126.672 29.3177 126.615 30.2567 126.501 31.1102C126.406 31.9638 126.311 32.7795 126.216 33.5572C126.141 34.3159 126.122 35.0652 126.16 35.805C126.198 36.393 125.998 36.8008 125.562 37.0285C125.126 37.2561 124.576 37.3699 123.912 37.3699C123.608 37.3699 123.267 37.3225 122.888 37.2276C122.527 37.1328 122.214 36.9715 121.949 36.7439C121.683 36.5163 121.541 36.2033 121.522 35.805C121.503 34.7238 121.588 33.5477 121.778 32.2768C121.986 31.0059 122.091 29.6971 122.091 28.3503C122.091 28.0848 122.062 27.7813 122.005 27.4398C121.968 27.0794 121.892 26.7475 121.778 26.444C121.664 26.1215 121.503 25.8559 121.294 25.6473C121.085 25.4386 120.829 25.3343 120.526 25.3343C119.862 25.3343 119.283 25.6188 118.79 26.1879C118.297 26.738 117.804 27.4493 117.311 28.3219C117.33 28.5874 117.33 28.834 117.311 29.0616C117.311 29.2703 117.311 29.4695 117.311 29.6591C117.311 29.8299 117.301 30.0006 117.282 30.1713C117.263 31.2335 117.206 32.2578 117.112 33.2442C117.017 34.2306 116.95 35.1411 116.912 35.9757C116.893 36.5068 116.656 36.9052 116.201 37.1707C115.765 37.4363 115.224 37.5691 114.579 37.5691C113.688 37.5691 113.1 37.4173 112.815 37.1138C112.531 36.8103 112.388 36.4594 112.388 36.0611C112.388 35.8903 112.407 35.5299 112.445 34.9798C112.483 34.4298 112.531 33.8038 112.588 33.102C112.644 32.3811 112.692 31.6888 112.73 31.0249C112.768 30.342 112.787 29.8014 112.787 29.4031C112.787 28.4736 112.739 27.7149 112.644 27.1268C112.569 26.5388 112.417 26.1025 112.189 25.818C111.981 25.5145 111.668 25.3628 111.25 25.3628C110.795 25.3628 110.378 25.5145 109.998 25.818C109.638 26.1025 109.306 26.4629 109.002 26.8992C108.718 27.3355 108.452 27.7718 108.206 28.208C108.187 29.2893 108.168 30.2946 108.149 31.2241C108.13 32.1535 108.092 33.0166 108.035 33.8133C107.997 34.61 107.931 35.3497 107.836 36.0326C107.76 36.5258 107.466 36.8577 106.954 37.0285C106.442 37.2181 105.892 37.313 105.304 37.313C104.772 37.313 104.27 37.2087 103.796 37C103.34 36.7724 103.122 36.412 103.141 35.9188C103.16 35.5394 103.198 35.0747 103.255 34.5246C103.312 33.9745 103.369 33.2252 103.426 32.2768C103.483 31.3094 103.502 30.029 103.483 28.4357C103.464 27.0699 103.464 25.9413 103.483 25.0498C103.521 24.1393 103.577 23.3236 103.653 22.6028ZM131.009 23.2288C131.047 22.527 131.294 22.0527 131.749 21.8061C132.204 21.5406 132.745 21.4078 133.371 21.4078C133.713 21.4078 134.054 21.4647 134.395 21.5785C134.756 21.6734 135.05 21.8631 135.277 22.1476C135.524 22.4131 135.628 22.7735 135.59 23.2288C135.533 24.2152 135.41 25.2964 135.221 26.4724C135.05 27.6485 134.964 28.853 134.964 30.0859C134.964 31.0344 135.078 31.7836 135.306 32.3337C135.552 32.8648 135.922 33.1304 136.416 33.1304C137.098 33.1304 137.715 32.6657 138.265 31.7362C138.834 30.8067 139.28 29.5453 139.602 27.952C139.678 27.0415 139.726 26.2638 139.745 25.6188C139.763 24.9739 139.773 24.4238 139.773 23.9686C139.792 23.5133 139.839 23.1339 139.915 22.8304C140.048 22.2993 140.314 21.9105 140.712 21.6639C141.129 21.4173 141.584 21.294 142.078 21.294C143.007 21.294 143.662 21.5406 144.041 22.0338C144.42 22.508 144.61 23.0296 144.61 23.5987C144.61 23.9591 144.572 24.4333 144.496 25.0213C144.439 25.5904 144.373 26.3017 144.297 27.1553C144.221 27.9899 144.183 29.0142 144.183 30.2282C144.183 31.2525 144.212 32.2578 144.269 33.2442C144.325 34.2306 144.392 35.1221 144.468 35.9188C144.525 36.3171 144.411 36.6586 144.126 36.9431C143.861 37.2087 143.5 37.4078 143.045 37.5406C142.609 37.6734 142.144 37.7398 141.651 37.7398C141.366 37.7398 141.082 37.6449 140.797 37.4552C140.532 37.2845 140.304 36.9526 140.114 36.4594C140.039 36.2128 139.963 35.9093 139.887 35.5489C139.811 35.1885 139.754 34.7333 139.716 34.1832C139.375 34.8091 138.976 35.3687 138.521 35.8619C138.085 36.3361 137.592 36.7155 137.041 37C136.51 37.2656 135.941 37.3983 135.334 37.3983C134.367 37.3983 133.561 37.1897 132.916 36.7724C132.271 36.3361 131.759 35.767 131.379 35.0652C131.019 34.3634 130.753 33.5951 130.583 32.7605C130.431 31.9069 130.355 31.0533 130.355 30.1998C130.355 28.9668 130.45 27.7433 130.64 26.5293C130.848 25.2964 130.972 24.1962 131.009 23.2288ZM159.556 22.2898C159.955 22.5175 160.268 22.7546 160.495 23.0012C160.742 23.2288 160.865 23.5323 160.865 23.9117C160.865 24.4807 160.676 24.9739 160.296 25.3912C159.936 25.8085 159.471 26.0172 158.902 26.0172C158.731 26.0172 158.523 25.9603 158.276 25.8465C158.048 25.7137 157.811 25.5714 157.565 25.4197C157.28 25.2489 156.996 25.1067 156.711 24.9929C156.446 24.8791 156.171 24.8222 155.886 24.8222C155.469 24.8222 155.061 24.898 154.663 25.0498C154.283 25.2015 153.932 25.4576 153.61 25.818C153.306 26.1784 153.06 26.6621 152.87 27.2691C152.68 27.8571 152.585 28.5969 152.585 29.4884C152.585 30.342 152.709 31.0628 152.955 31.6509C153.202 32.2389 153.515 32.6941 153.894 33.0166C154.293 33.3201 154.719 33.4718 155.175 33.4718C155.535 33.4718 155.914 33.3865 156.313 33.2158C156.711 33.0261 157.147 32.7415 157.622 32.3622C157.887 32.1156 158.172 31.888 158.475 31.6793C158.779 31.4707 159.054 31.3663 159.3 31.3663C159.812 31.3663 160.249 31.5655 160.609 31.9638C160.97 32.3432 161.15 32.8174 161.15 33.3865C161.15 33.7659 160.97 34.1452 160.609 34.5246C160.268 34.885 159.879 35.217 159.443 35.5204C158.798 35.9947 158.067 36.374 157.252 36.6586C156.455 36.9241 155.63 37.0569 154.776 37.0569C153.373 37.0569 152.14 36.7344 151.077 36.0895C150.034 35.4256 149.219 34.553 148.631 33.4718C148.042 32.3717 147.748 31.1672 147.748 29.8583C147.748 28.6064 147.919 27.4588 148.261 26.4155C148.602 25.3722 149.095 24.4617 149.74 23.684C150.404 22.9063 151.21 22.3088 152.159 21.8915C153.126 21.4552 154.217 21.2371 155.431 21.2371C156.36 21.2371 157.176 21.3509 157.878 21.5785C158.58 21.8061 159.139 22.0433 159.556 22.2898ZM164.573 15.1197C164.63 14.5696 164.867 14.1713 165.285 13.9247C165.702 13.6591 166.176 13.5263 166.707 13.5263C167.523 13.5263 168.149 13.6591 168.585 13.9247C169.021 14.1902 169.23 14.5981 169.211 15.1482C169.192 15.5086 169.164 15.8879 169.126 16.2863C169.088 16.6657 169.04 17.1494 168.983 17.7374C168.946 18.3254 168.908 19.1221 168.87 20.1274C168.832 21.1328 168.813 22.4416 168.813 24.0539C169.477 23.1624 170.216 22.4985 171.032 22.0622C171.848 21.6259 172.711 21.4078 173.621 21.4078C174.797 21.4078 175.708 21.7208 176.353 22.3467C177.017 22.9537 177.481 23.8263 177.747 24.9644C178.012 26.1025 178.145 27.4493 178.145 29.0047C178.145 30.7119 178.117 32.0871 178.06 33.1304C178.022 34.1737 178.003 35.0557 178.003 35.7765C178.003 36.3266 177.775 36.725 177.32 36.9715C176.865 37.2181 176.381 37.3414 175.869 37.3414C175.015 37.3414 174.427 37.2181 174.105 36.9715C173.801 36.725 173.65 36.3266 173.65 35.7765C173.669 35.0747 173.697 34.2021 173.735 33.1589C173.773 32.1156 173.792 30.7119 173.792 28.9478C173.792 27.8097 173.659 26.9466 173.394 26.3586C173.128 25.7516 172.711 25.4481 172.142 25.4481C171.649 25.4481 171.184 25.6283 170.748 25.9887C170.311 26.3491 169.932 26.8423 169.609 27.4683C169.287 28.0753 169.05 28.7676 168.898 29.5453V35.0937C168.898 35.8145 168.708 36.2982 168.329 36.5448C167.969 36.7913 167.523 36.9146 166.992 36.9146C166.176 36.9146 165.56 36.8198 165.142 36.6301C164.725 36.4404 164.44 36.1464 164.289 35.7481C164.137 35.3497 164.061 34.8281 164.061 34.1832C164.061 33.8228 164.071 33.4244 164.09 32.9881C164.109 32.5329 164.137 32.0682 164.175 31.5939C164.232 31.1197 164.279 30.6835 164.317 30.2851C164.26 29.128 164.222 27.8571 164.203 26.4724C164.184 25.0687 164.184 23.6651 164.203 22.2614C164.222 20.8387 164.26 19.5109 164.317 18.278C164.374 17.045 164.459 15.9923 164.573 15.1197ZM181.315 30.342C181.315 29.1849 181.486 28.0658 181.827 26.9846C182.168 25.9034 182.652 24.936 183.278 24.0824C183.923 23.2288 184.701 22.5554 185.611 22.0622C186.541 21.5501 187.593 21.294 188.77 21.294C189.509 21.294 190.154 21.4173 190.704 21.6639C191.273 21.8915 191.776 22.2235 192.212 22.6597C192.307 22.2424 192.468 21.901 192.696 21.6354C192.924 21.3699 193.332 21.2371 193.92 21.2371C194.602 21.2371 195.2 21.4078 195.712 21.7492C196.224 22.0717 196.471 22.489 196.452 23.0012C196.433 23.5133 196.348 24.2152 196.196 25.1067C196.044 25.9792 195.911 26.8423 195.797 27.6959C195.759 27.9615 195.703 28.3029 195.627 28.7202C195.57 29.1375 195.513 29.5548 195.456 29.9721C195.418 30.3705 195.39 30.7119 195.371 30.9964C195.352 31.281 195.342 31.6414 195.342 32.0776C195.342 32.495 195.399 32.8648 195.513 33.1873C195.627 33.5098 195.816 33.671 196.082 33.671C196.234 33.671 196.366 33.6331 196.48 33.5572C196.594 33.4813 196.708 33.377 196.822 33.2442C197.011 33.1114 197.173 33.0071 197.305 32.9312C197.457 32.8364 197.647 32.789 197.874 32.789C198.14 32.789 198.377 32.8838 198.586 33.0735C198.813 33.2442 198.984 33.4813 199.098 33.7848C199.231 34.0883 199.24 34.4298 199.126 34.8091C199.051 35.1695 198.804 35.5394 198.387 35.9188C197.969 36.2982 197.476 36.6206 196.907 36.8862C196.357 37.1328 195.807 37.2561 195.257 37.2561C194.707 37.2561 194.204 37.1423 193.749 36.9146C193.294 36.668 192.905 36.3456 192.582 35.9472C192.279 35.5299 192.07 35.0462 191.956 34.4961C191.463 35.2359 190.809 35.8524 189.993 36.3456C189.196 36.8388 188.295 37.0854 187.29 37.0854C186.038 37.0854 184.966 36.7913 184.075 36.2033C183.183 35.6153 182.5 34.8186 182.026 33.8133C181.552 32.789 181.315 31.6319 181.315 30.342ZM186.123 30.1428C186.123 30.7498 186.19 31.2999 186.323 31.7931C186.455 32.2673 186.655 32.6467 186.92 32.9312C187.205 33.2158 187.575 33.358 188.03 33.358C188.409 33.358 188.741 33.2727 189.026 33.102C189.31 32.9123 189.566 32.6657 189.794 32.3622C190.021 32.0397 190.202 31.6698 190.334 31.2525C190.486 30.8162 190.619 30.361 190.733 29.8868C190.847 29.4126 190.941 28.9289 191.017 28.4357C191.093 27.9425 191.16 27.4588 191.217 26.9846C191.273 26.5104 191.321 26.0456 191.359 25.5904C191.093 25.3438 190.79 25.1541 190.448 25.0213C190.107 24.8696 189.746 24.7937 189.367 24.7937C188.855 24.7937 188.4 24.936 188.001 25.2205C187.603 25.4861 187.262 25.8654 186.977 26.3586C186.692 26.8518 186.474 27.4209 186.323 28.0658C186.19 28.7107 186.123 29.4031 186.123 30.1428ZM202.253 22.6882C202.348 22.2709 202.537 21.9484 202.822 21.7208C203.106 21.4932 203.419 21.3414 203.761 21.2655C204.121 21.1897 204.434 21.1517 204.7 21.1517C205.269 21.1517 205.724 21.275 206.065 21.5216C206.426 21.7492 206.606 22.0717 206.606 22.489C206.606 22.6597 206.587 22.8684 206.549 23.115C206.511 23.3616 206.473 23.6271 206.435 23.9117C206.397 24.1962 206.369 24.4902 206.35 24.7937C206.957 23.6176 207.697 22.7546 208.569 22.2045C209.442 21.6544 210.457 21.3794 211.614 21.3794C213.207 21.3794 214.364 21.9863 215.085 23.2003C215.825 24.3954 216.195 25.9792 216.195 27.952C216.195 28.6728 216.157 29.3746 216.081 30.0575C216.024 30.7404 215.948 31.4043 215.853 32.0492C215.758 32.6752 215.673 33.2822 215.597 33.8702C215.54 34.4392 215.512 34.9609 215.512 35.4351C215.512 36.1559 215.294 36.6396 214.857 36.8862C214.421 37.1138 213.947 37.2276 213.435 37.2276C212.79 37.2276 212.202 37.1138 211.671 36.8862C211.158 36.6586 210.902 36.2507 210.902 35.6627C210.902 34.9609 210.931 34.3065 210.988 33.6995C211.064 33.0735 211.149 32.457 211.244 31.85C211.339 31.243 211.415 30.6265 211.471 30.0006C211.547 29.3746 211.585 28.7107 211.585 28.0089C211.585 27.326 211.509 26.7949 211.358 26.4155C211.225 26.0361 211.045 25.7801 210.817 25.6473C210.589 25.4955 210.343 25.4197 210.077 25.4197C209.584 25.4197 209.129 25.5999 208.711 25.9603C208.313 26.3207 207.953 26.7854 207.63 27.3545C207.308 27.9046 207.033 28.4831 206.805 29.0901C206.805 30.5127 206.777 31.7931 206.72 32.9312C206.663 34.0504 206.634 34.9324 206.634 35.5774C206.634 36.1274 206.359 36.5353 205.809 36.8008C205.259 37.0474 204.605 37.1707 203.846 37.1707C202.973 37.1707 202.385 36.9336 202.082 36.4594C201.797 35.9852 201.655 35.4351 201.655 34.8091C201.655 34.2401 201.665 33.5951 201.684 32.8743C201.703 32.1346 201.741 31.3853 201.797 30.6265C201.873 29.8678 201.959 29.1944 202.054 28.6064C202.035 27.658 202.025 26.8802 202.025 26.2733C202.025 25.6473 202.035 25.1257 202.054 24.7083C202.072 24.291 202.091 23.9306 202.11 23.6271C202.148 23.3236 202.196 23.0107 202.253 22.6882ZM226.44 37.1138C225.131 37.1138 224.012 36.8957 223.083 36.4594C222.153 36.0231 221.385 35.4541 220.778 34.7522C220.19 34.0314 219.754 33.2252 219.469 32.3337C219.204 31.4232 219.071 30.5127 219.071 29.6022C219.071 28.5969 219.261 27.6105 219.64 26.6431C220.038 25.6568 220.589 24.7652 221.29 23.9686C222.011 23.1529 222.855 22.4985 223.823 22.0053C224.809 21.5121 225.9 21.2655 227.095 21.2655C228.157 21.2655 229.039 21.4363 229.741 21.7777C230.462 22.1002 231.002 22.5649 231.363 23.1719C231.742 23.7789 231.932 24.4997 231.932 25.3343C231.932 26.2258 231.742 27.013 231.363 27.6959C230.983 28.3788 230.443 28.9573 229.741 29.4315C228.887 30.0006 227.977 30.4274 227.009 30.7119C226.042 30.9775 224.989 31.1482 223.851 31.2241C224.022 31.6224 224.24 31.9923 224.506 32.3337C224.771 32.6562 225.094 32.9217 225.473 33.1304C225.871 33.3391 226.336 33.4434 226.867 33.4434C227.531 33.4434 228.129 33.2822 228.66 32.9597C229.191 32.6183 229.655 32.2294 230.054 31.7931C230.281 31.5465 230.481 31.3948 230.651 31.3379C230.822 31.262 230.974 31.2241 231.107 31.2241C231.372 31.2241 231.638 31.3189 231.903 31.5086C232.169 31.6983 232.406 31.9259 232.615 32.1915C232.842 32.457 232.975 32.7321 233.013 33.0166C233.089 33.2822 233.06 33.5477 232.928 33.8133C232.814 34.0788 232.69 34.278 232.558 34.4108C231.856 35.1695 230.974 35.8145 229.912 36.3456C228.868 36.8577 227.711 37.1138 226.44 37.1138ZM223.652 28.1227C224.164 28.0848 224.581 28.0373 224.904 27.9804C225.245 27.9046 225.644 27.7718 226.099 27.5821C226.554 27.4114 226.943 27.1458 227.265 26.7854C227.588 26.425 227.749 25.9982 227.749 25.505C227.749 25.3153 227.702 25.1446 227.607 24.9929C227.531 24.8411 227.408 24.7178 227.237 24.623C227.066 24.5281 226.848 24.4807 226.583 24.4807C226.222 24.4807 225.871 24.604 225.53 24.8506C225.188 25.0782 224.885 25.3817 224.619 25.7611C224.373 26.1405 224.164 26.5388 223.993 26.9561C223.823 27.3734 223.709 27.7623 223.652 28.1227Z" fill="#0183C7"/>
<path d="M81.378 48.5517C80.7751 48.4513 80.4737 48.0996 80.4737 47.4967C80.4737 47.2958 80.5072 47.0892 80.5741 46.8771C80.6523 46.665 80.7695 46.492 80.9258 46.358C81.0821 46.2129 81.2831 46.1514 81.5287 46.1738C82.0199 46.2296 82.539 46.2798 83.0861 46.3245C83.6443 46.358 84.2081 46.3747 84.7774 46.3747C85.7934 46.3747 86.5748 46.3301 87.1219 46.2408C87.6689 46.1514 87.9759 46.1068 88.0429 46.1068C88.389 46.1068 88.6849 46.2073 88.9305 46.4082C89.1873 46.6092 89.3156 46.8715 89.3156 47.1953C89.3156 47.4856 89.1928 47.7982 88.9472 48.1331C88.6235 48.5796 88.2327 49.1323 87.775 49.7909C87.3284 50.4496 86.8428 51.1753 86.3181 51.9679C85.8045 52.7494 85.2742 53.5588 84.7272 54.3961C84.1913 55.2335 83.6722 56.0652 83.1698 56.8913C83.4489 56.8467 83.7392 56.8132 84.0406 56.7908C84.3532 56.7685 84.6714 56.7518 84.9951 56.7406C85.3301 56.7183 85.6594 56.7071 85.9832 56.7071C86.4409 56.7071 86.8651 56.7239 87.2559 56.7574C87.6466 56.7797 87.9815 56.8243 88.2606 56.8913C88.629 56.9806 88.897 57.1369 89.0644 57.3602C89.2319 57.5723 89.3156 57.8235 89.3156 58.1138C89.3156 58.5827 89.2152 58.9009 89.0142 59.0683C88.8244 59.2246 88.6067 59.2972 88.3611 59.286C87.8587 59.2302 87.3508 59.1911 86.8372 59.1688C86.3348 59.1353 85.8269 59.1186 85.3133 59.1186C84.4648 59.1186 83.6945 59.1521 83.0023 59.219C82.3213 59.286 81.7631 59.353 81.3277 59.42C80.8923 59.487 80.63 59.5205 80.5406 59.5205C80.1276 59.5205 79.8206 59.4367 79.6196 59.2693C79.4187 59.113 79.3182 58.9009 79.3182 58.6329C79.3182 58.4878 79.3461 58.3259 79.4019 58.1473C79.4689 57.9687 79.5526 57.7956 79.6531 57.6282C79.8206 57.3379 80.055 56.9471 80.3564 56.4559C80.6579 55.9647 81.004 55.4009 81.3947 54.7646C81.7966 54.1282 82.2264 53.4639 82.6842 52.7718C83.1419 52.0684 83.5996 51.3651 84.0573 50.6617C84.5262 49.9584 84.984 49.2886 85.4305 48.6522C85.1849 48.6745 84.9449 48.6969 84.7104 48.7192C84.476 48.7304 84.2583 48.7359 84.0573 48.7359C83.7113 48.7359 83.3149 48.7248 82.8684 48.7024C82.4218 48.669 81.925 48.6187 81.378 48.5517ZM90.4037 55.4512C90.4037 54.7925 90.4986 54.1394 90.6884 53.4919C90.8782 52.8443 91.1517 52.2526 91.509 51.7168C91.8662 51.1809 92.3072 50.7511 92.8319 50.4273C93.3567 50.1035 93.9595 49.9417 94.6405 49.9417C94.8973 49.9417 95.1931 50.0031 95.5281 50.1259C95.863 50.2375 96.1756 50.4385 96.4659 50.7287C96.5328 50.405 96.678 50.1873 96.9013 50.0756C97.1245 49.964 97.3702 49.9082 97.6381 49.9082C97.973 49.9082 98.28 50.0086 98.5591 50.2096C98.8382 50.4106 98.9778 50.7566 98.9778 51.2479C98.9778 51.5828 98.9499 51.9345 98.8941 52.3029C98.8494 52.6713 98.7992 53.0955 98.7433 53.5756C98.6987 54.0556 98.6764 54.6362 98.6764 55.3172C98.6764 55.7861 98.6931 56.2047 98.7266 56.5731C98.7601 56.9304 98.8494 57.2207 98.9945 57.4439C99.095 57.377 99.1787 57.3211 99.2457 57.2765C99.3239 57.2207 99.3909 57.1648 99.4467 57.109C99.5025 57.042 99.5639 56.9695 99.6309 56.8913C99.709 56.802 99.7872 56.7406 99.8653 56.7071C99.9435 56.6736 100.05 56.6569 100.184 56.6569C100.362 56.6569 100.546 56.7406 100.736 56.9081C100.926 57.0644 101.021 57.2653 101.021 57.5109C101.021 57.6672 100.982 57.8179 100.904 57.9631C100.837 58.097 100.703 58.2478 100.502 58.4152C100.189 58.6943 99.8597 58.9232 99.5137 59.1018C99.1676 59.2804 98.8326 59.3698 98.5089 59.3698C98.2298 59.3698 97.9618 59.2916 97.7051 59.1353C97.4595 58.979 97.2473 58.7669 97.0687 58.499C96.9013 58.231 96.784 57.9352 96.7171 57.6114C96.5273 57.924 96.2761 58.2143 95.9635 58.4822C95.662 58.739 95.3215 58.9455 94.942 59.1018C94.5735 59.2581 94.194 59.3363 93.8032 59.3363C93.0775 59.3363 92.4579 59.1521 91.9444 58.7836C91.4308 58.4041 91.0457 57.9184 90.7889 57.3267C90.5321 56.735 90.4037 56.1098 90.4037 55.4512ZM93.2673 55.3004C93.2673 55.8475 93.3622 56.2885 93.552 56.6234C93.7418 56.9583 94.0098 57.1258 94.3558 57.1258C94.6349 57.1258 94.8694 57.0365 95.0592 56.8578C95.249 56.668 95.4108 56.4168 95.5448 56.1043C95.6788 55.7917 95.7848 55.44 95.863 55.0492C95.9411 54.6585 96.0025 54.251 96.0472 53.8268C96.103 53.3914 96.1477 52.9671 96.1812 52.5541C96.036 52.4313 95.8909 52.3364 95.7458 52.2694C95.6118 52.1912 95.4723 52.1354 95.3271 52.1019C95.1931 52.0573 95.048 52.0349 94.8917 52.0349C94.5903 52.0349 94.3168 52.1689 94.0712 52.4368C93.8255 52.6936 93.6302 53.0676 93.485 53.5588C93.3511 54.0389 93.2785 54.6194 93.2673 55.3004ZM102.876 50.645C102.92 50.4106 103.065 50.2319 103.311 50.1091C103.557 49.9752 103.825 49.9082 104.115 49.9082C104.439 49.9082 104.706 49.9863 104.919 50.1426C105.131 50.2989 105.237 50.4831 105.237 50.6952C105.237 50.8069 105.22 50.9409 105.187 51.0971C105.164 51.2423 105.136 51.4432 105.103 51.7C105.36 51.3093 105.628 50.9911 105.907 50.7455C106.197 50.4887 106.515 50.2989 106.861 50.1761C107.207 50.0421 107.581 49.9752 107.983 49.9752C108.285 49.9752 108.58 50.0254 108.871 50.1259C109.172 50.2263 109.451 50.3994 109.708 50.645C109.965 50.8794 110.171 51.22 110.328 51.6665C110.562 51.3204 110.824 51.019 111.115 50.7622C111.416 50.4943 111.745 50.2878 112.103 50.1426C112.471 49.9863 112.867 49.9082 113.292 49.9082C113.906 49.9082 114.403 50.031 114.782 50.2766C115.162 50.511 115.452 50.8404 115.653 51.2646C115.865 51.6777 116.005 52.1522 116.072 52.688C116.15 53.2127 116.189 53.7598 116.189 54.3292C116.189 54.6976 116.178 55.0381 116.155 55.3507C116.144 55.6521 116.122 55.9535 116.088 56.255C116.055 56.5452 116.016 56.8522 115.971 57.176C115.938 57.4886 115.899 57.8459 115.854 58.2478C115.809 58.6162 115.653 58.8785 115.385 59.0348C115.128 59.1911 114.849 59.2693 114.548 59.2693C113.978 59.2693 113.604 59.1911 113.426 59.0348C113.258 58.8785 113.174 58.6497 113.174 58.3482C113.174 58.1919 113.191 57.991 113.225 57.7454C113.258 57.4886 113.297 57.1983 113.342 56.8746C113.398 56.5397 113.442 56.1657 113.476 55.7526C113.509 55.3395 113.526 54.8929 113.526 54.4129C113.526 53.7654 113.459 53.263 113.325 52.9057C113.202 52.5485 112.951 52.3699 112.572 52.3699C112.382 52.3699 112.192 52.4313 112.002 52.5541C111.812 52.6657 111.634 52.8164 111.466 53.0062C111.299 53.196 111.148 53.4081 111.014 53.6426C110.891 53.877 110.791 54.117 110.713 54.3627C110.713 54.5748 110.707 54.759 110.696 54.9153C110.685 55.0716 110.674 55.2223 110.663 55.3674C110.663 55.5014 110.657 55.6465 110.646 55.8028C110.635 56.1266 110.618 56.4448 110.596 56.7574C110.573 57.0588 110.556 57.3491 110.545 57.6282C110.534 57.8961 110.529 58.1473 110.529 58.3817C110.517 58.7501 110.406 59.0069 110.194 59.1521C109.982 59.2972 109.624 59.3698 109.122 59.3698C108.653 59.3698 108.313 59.2972 108.1 59.1521C107.888 58.9958 107.788 58.7167 107.799 58.3147C107.81 57.9128 107.832 57.4998 107.866 57.0755C107.899 56.6401 107.933 56.1824 107.966 55.7023C108 55.2223 108.017 54.7255 108.017 54.2119C108.017 53.5644 107.961 53.1011 107.849 52.822C107.738 52.5317 107.531 52.3866 107.23 52.3866C107.006 52.3866 106.777 52.4592 106.543 52.6043C106.32 52.7494 106.108 52.9448 105.907 53.1904C105.706 53.436 105.521 53.7151 105.354 54.0277C105.332 54.5859 105.309 55.1441 105.287 55.7023C105.265 56.2494 105.242 56.7574 105.22 57.2262C105.209 57.684 105.192 58.0691 105.17 58.3817C105.147 58.7501 105.03 59.0069 104.818 59.1521C104.617 59.2972 104.305 59.3698 103.88 59.3698C103.367 59.3698 102.993 59.2972 102.758 59.1521C102.524 59.0069 102.412 58.7278 102.423 58.3147C102.446 57.7007 102.468 57.0253 102.49 56.2885C102.513 55.5405 102.541 54.7813 102.574 54.011C102.596 53.4304 102.63 52.8555 102.675 52.2861C102.719 51.7056 102.786 51.1586 102.876 50.645ZM119.012 46.2575C119.034 45.9672 119.146 45.7551 119.347 45.6212C119.559 45.4872 119.95 45.4202 120.519 45.4202C121.01 45.4202 121.329 45.5207 121.474 45.7216C121.619 45.9114 121.691 46.1403 121.691 46.4082C121.691 46.6762 121.658 47.0725 121.591 47.5972C121.524 48.1107 121.446 48.8197 121.357 49.724C121.278 50.6171 121.211 51.7558 121.156 53.1402C121.211 53.1067 121.329 53.023 121.507 52.889C121.686 52.7439 121.898 52.5708 122.144 52.3699C122.389 52.1689 122.657 51.9512 122.947 51.7168C123.238 51.4823 123.528 51.2479 123.818 51.0134C124.108 50.7678 124.382 50.5445 124.639 50.3436C124.806 50.1984 124.963 50.098 125.108 50.0421C125.253 49.9752 125.42 49.9417 125.61 49.9417C125.856 49.9417 126.062 49.9975 126.23 50.1091C126.397 50.2096 126.526 50.3436 126.615 50.511C126.715 50.6673 126.782 50.8236 126.816 50.9799C126.86 51.1251 126.883 51.2479 126.883 51.3483C126.883 51.46 126.86 51.5716 126.816 51.6833C126.782 51.7949 126.693 51.9065 126.548 52.0182C126.403 52.1298 126.235 52.2582 126.045 52.4033C125.856 52.5373 125.655 52.688 125.443 52.8555C125.23 53.0118 125.013 53.1737 124.79 53.3411C124.566 53.5086 124.349 53.6705 124.136 53.8268C123.924 53.9831 123.723 54.1338 123.534 54.2789C123.679 54.5022 123.829 54.7478 123.986 55.0158C124.153 55.2837 124.315 55.546 124.471 55.8028C124.616 56.0261 124.75 56.2159 124.873 56.3722C124.996 56.5285 125.113 56.6457 125.225 56.7239C125.348 56.802 125.476 56.8411 125.61 56.8411C125.766 56.8411 125.917 56.7741 126.062 56.6401C126.219 56.495 126.38 56.322 126.548 56.121C126.637 56.0094 126.738 55.92 126.849 55.8531C126.961 55.7861 127.078 55.7526 127.201 55.7526C127.413 55.7526 127.608 55.814 127.787 55.9368C127.966 56.0484 128.111 56.1936 128.222 56.3722C128.334 56.5508 128.39 56.735 128.39 56.9248C128.39 57.1146 128.34 57.2988 128.239 57.4774C128.139 57.6561 128.01 57.8124 127.854 57.9463C127.642 58.1584 127.38 58.3706 127.067 58.5827C126.766 58.7948 126.436 58.9734 126.079 59.1186C125.733 59.2525 125.37 59.3195 124.99 59.3195C124.566 59.3195 124.198 59.2414 123.885 59.0851C123.573 58.9176 123.288 58.6943 123.031 58.4152C122.786 58.1361 122.546 57.8124 122.311 57.4439C122.032 56.9751 121.809 56.5731 121.641 56.2382C121.474 55.8921 121.295 55.5572 121.105 55.2335C121.094 55.8251 121.077 56.3945 121.055 56.9416C121.033 57.4886 121.016 57.991 121.005 58.4487C120.994 58.7948 120.888 59.0348 120.687 59.1688C120.486 59.2916 120.179 59.353 119.766 59.353C119.241 59.353 118.861 59.2916 118.627 59.1688C118.404 59.0348 118.298 58.7948 118.309 58.4487C118.376 56.4503 118.465 54.4073 118.577 52.3196C118.688 50.2208 118.833 48.2001 119.012 46.2575ZM130.251 50.9464C130.251 50.7232 130.318 50.5389 130.452 50.3938C130.586 50.2487 130.759 50.137 130.971 50.0589C131.184 49.9807 131.39 49.9417 131.591 49.9417C132.06 49.9417 132.412 50.0254 132.646 50.1929C132.881 50.3603 132.998 50.6115 132.998 50.9464C132.998 51.7056 132.975 52.3866 132.931 52.9895C132.897 53.5812 132.853 54.1561 132.797 54.7143C132.752 55.2614 132.707 55.8363 132.663 56.4392C132.618 57.042 132.585 57.7342 132.562 58.5157C132.551 58.8283 132.423 59.0572 132.177 59.2023C131.932 59.3586 131.597 59.4367 131.172 59.4367C130.782 59.4367 130.486 59.3809 130.285 59.2693C130.084 59.1576 129.95 59.0237 129.883 58.8674C129.816 58.6999 129.782 58.5324 129.782 58.365C129.782 58.2645 129.794 58.0189 129.816 57.6282C129.849 57.2374 129.889 56.7574 129.933 56.188C129.978 55.6186 130.023 55.0158 130.067 54.3794C130.123 53.743 130.168 53.1234 130.201 52.5206C130.235 51.9177 130.251 51.393 130.251 50.9464ZM130.201 47.279C130.201 46.9664 130.268 46.6929 130.402 46.4585C130.536 46.224 130.715 46.0454 130.938 45.9226C131.172 45.7886 131.429 45.7216 131.708 45.7216C132.188 45.7216 132.551 45.7998 132.797 45.9561C133.054 46.1012 133.227 46.2798 133.316 46.492C133.405 46.7041 133.45 46.905 133.45 47.0948C133.45 47.5637 133.288 47.9377 132.964 48.2168C132.652 48.4847 132.244 48.6187 131.742 48.6187C131.284 48.6187 130.91 48.5071 130.62 48.2838C130.341 48.0493 130.201 47.7144 130.201 47.279Z" fill="#0183C7"/>
<circle cx="18" cy="41" r="18" fill="#0283C6"/>
<circle cx="33" cy="18" r="18" fill="#28D2FF"/>
<circle cx="46" cy="41" r="25" fill="#15AAE2"/>
<path d="M22.6486 18.1136C22.6101 16.5309 24.3385 15.5331 25.6898 16.3577L35.5756 22.3904C36.0884 22.7034 36.7148 22.7692 37.2815 22.5697L48.2054 18.7242C49.6988 18.1985 51.1819 19.5339 50.8152 21.074L48.1326 32.3401C47.9934 32.9245 48.1244 33.5406 48.4892 34.0179L55.5222 43.2189C56.4836 44.4767 55.6719 46.2998 54.0939 46.427L42.5502 47.3571C41.9514 47.4054 41.4059 47.7203 41.0647 48.2148L34.4874 57.7468C33.5882 59.0498 31.6035 58.8412 30.9949 57.3797L26.5431 46.6885C26.3122 46.1339 25.8441 45.7124 25.2684 45.5407L14.1704 42.2309C12.6533 41.7784 12.2383 39.8263 13.4403 38.7959L22.2325 31.2582C22.6887 30.8672 22.9448 30.2918 22.9302 29.6912L22.6486 18.1136Z" fill="#FFE54C"/>
</svg>
